<?xml version="1.0" standalone="no"?>
<!DOCTYPE svg PUBLIC "-//W3C//DTD SVG 20010904//EN"
 "http://www.w3.org/TR/2001/REC-SVG-20010904/DTD/svg10.dtd">
<svg version="1.0" xmlns="http://www.w3.org/2000/svg"
 width="1024.000000pt" height="1024.000000pt" viewBox="0 0 1024.000000 1024.000000"
 preserveAspectRatio="xMidYMid meet">

<g transform="translate(0.000000,1024.000000) scale(0.100000,-0.100000)"
fill="#000000" stroke="none">
<path d="M4872 8239 c5 -14 100 -47 150 -53 15 -1 33 -7 40 -13 13 -11 106
-46 168 -65 19 -5 39 -17 46 -26 6 -8 34 -18 61 -22 45 -5 50 -4 45 12 -2 9
-13 20 -23 23 -13 4 -18 13 -14 24 4 13 -12 25 -73 53 -97 47 -169 64 -301 73
-85 6 -103 5 -99 -6z"/>
<path d="M5245 8232 c6 -6 24 -18 41 -29 126 -75 170 -117 171 -167 1 -41 -11
-54 -33 -35 -13 10 -12 14 3 32 17 20 17 20 0 14 -10 -4 -31 -7 -45 -7 -26 0
-25 -2 21 -42 26 -24 47 -49 47 -55 0 -17 -5 -16 -41 3 -17 8 -45 14 -62 12
l-32 -3 36 -17 c20 -8 47 -26 60 -39 48 -46 143 -124 145 -119 1 3 13 -7 26
-21 13 -15 35 -34 50 -43 26 -17 27 -17 25 3 0 11 -4 18 -8 15 -4 -2 -23 16
-42 40 -20 24 -52 51 -72 60 -19 9 -35 22 -35 27 0 6 -10 19 -22 30 -28 23 -7
25 27 3 14 -9 25 -13 25 -9 0 3 7 -1 16 -9 8 -9 20 -14 25 -11 5 4 9 2 9 -2 0
-8 75 -58 88 -58 31 -1 45 -51 17 -61 -12 -5 -13 -10 -4 -20 13 -16 89 -19 89
-4 0 6 5 10 10 10 6 0 10 -6 10 -14 0 -15 45 -56 61 -56 5 0 9 7 9 16 0 10 -6
13 -18 10 -13 -4 -18 0 -19 14 -2 22 13 27 20 8 2 -7 8 -10 12 -6 9 8 -102
188 -116 188 -5 0 -9 8 -9 19 0 14 -6 17 -25 13 -27 -5 -33 6 -13 26 9 9 0 22
-35 58 -39 39 -49 44 -62 34 -8 -7 -15 -18 -15 -25 0 -7 -6 -15 -14 -18 -9 -4
-16 4 -19 22 -3 16 -20 41 -36 57 -17 16 -31 33 -31 38 0 6 17 -6 38 -25 36
-35 61 -44 63 -24 2 13 -179 118 -246 144 -76 28 -102 35 -90 23z"/>
<path d="M4480 8121 c0 -5 28 -19 63 -32 34 -13 80 -33 101 -45 22 -13 44 -20
48 -18 5 3 7 0 6 -6 -2 -6 19 -20 45 -30 56 -22 79 -38 71 -52 -4 -5 -13 -3
-22 5 -24 21 -125 62 -202 82 -168 44 -351 56 -531 35 -88 -10 -219 -45 -219
-58 0 -4 24 -6 52 -5 84 2 322 -18 336 -29 6 -6 12 -14 12 -18 0 -4 -75 -11
-167 -14 -213 -8 -296 -15 -307 -27 -6 -5 1 -9 20 -9 19 0 25 -3 16 -9 -20
-12 -43 -61 -35 -75 5 -8 3 -8 -8 0 -8 6 -24 10 -35 8 -15 -2 -23 3 -27 17 -4
14 -2 18 7 12 6 -4 3 0 -7 10 -11 9 -16 18 -13 18 3 1 9 2 14 3 4 1 16 7 27
14 18 11 17 12 -10 6 -60 -12 -72 -17 -182 -70 -62 -30 -113 -59 -113 -64 0
-6 -4 -9 -9 -7 -4 1 -36 -16 -69 -37 -40 -26 -60 -45 -59 -57 1 -14 7 -17 27
-12 25 5 92 43 78 43 -19 0 34 40 53 40 11 0 29 4 39 10 13 7 19 6 24 -5 5
-13 10 -13 38 -1 63 26 103 39 138 43 19 2 42 7 50 11 18 7 29 9 56 11 24 1
64 33 64 50 0 6 8 11 18 12 37 2 118 -2 134 -7 10 -3 19 2 23 16 9 29 49 26
70 -6 13 -20 14 -28 4 -40 -10 -13 -10 -17 2 -25 20 -13 30 -11 50 7 17 15 30
14 166 -10 82 -14 176 -26 211 -26 55 0 62 -2 62 -20 0 -13 7 -20 20 -20 32 0
34 -1 53 -17 10 -10 17 -11 17 -5 0 14 28 5 55 -18 29 -25 92 -55 154 -74 30
-9 64 -25 75 -35 12 -11 32 -21 46 -23 14 -1 29 -12 34 -24 14 -30 93 -69 143
-70 44 -1 81 -22 56 -31 -18 -6 -16 -33 2 -33 7 0 18 6 22 14 4 8 37 45 73 83
36 38 72 84 80 103 7 19 20 43 28 53 10 11 11 17 4 17 -7 0 -12 -5 -12 -12 0
-6 -9 -2 -20 10 -11 12 -20 25 -19 29 5 32 -3 65 -18 70 -10 4 -38 22 -63 40
-40 31 -45 32 -51 16 -4 -10 -8 -31 -9 -48 l-2 -30 -9 27 c-11 30 -102 92
-132 90 -12 0 -17 4 -13 13 3 9 -12 24 -41 41 -37 21 -47 24 -55 13 -8 -11 -9
-10 -4 3 4 14 -13 26 -80 59 -120 57 -223 91 -257 83 -20 -4 -27 -2 -25 7 2 9
-10 14 -36 16 -22 1 -44 7 -50 13 -12 12 -76 14 -76 1z m-545 -111 c-3 -5 -11
-10 -16 -10 -6 0 -7 5 -4 10 3 6 11 10 16 10 6 0 7 -4 4 -10z m235 0 c0 -5
-19 -9 -42 -9 l-43 2 40 7 c22 4 41 8 43 9 1 0 2 -3 2 -9z m785 -40 c-3 -5
-12 -7 -20 -3 -21 7 -19 13 6 13 11 0 18 -4 14 -10z m-955 -50 c0 -5 -4 -10
-10 -10 -5 0 -10 5 -10 10 0 6 5 10 10 10 6 0 10 -4 10 -10z m626 -25 c27 -8
60 -15 74 -15 28 -1 60 -21 60 -39 0 -8 -8 -10 -22 -5 -47 15 -135 36 -196 48
-35 6 -60 15 -56 19 12 12 88 8 140 -8z m297 -25 c9 0 17 -4 17 -10 0 -5 6
-10 13 -10 17 -1 63 -37 56 -45 -9 -8 -146 63 -152 80 -5 11 -1 11 21 -1 15
-8 35 -14 45 -14z m-303 -14 c0 -3 -4 -8 -10 -11 -5 -3 -10 -1 -10 4 0 6 5 11
10 11 6 0 10 -2 10 -4z m-1059 -89 c-13 -13 -26 -3 -16 12 3 6 11 8 17 5 6 -4
6 -10 -1 -17z m1226 -83 c-9 -9 -28 6 -21 18 4 6 10 6 17 -1 6 -6 8 -13 4 -17z
m621 -25 c16 -25 4 -43 -24 -37 -23 4 -31 37 -12 49 19 12 22 11 36 -12z
m-313 -130 c11 -16 1 -19 -13 -3 -7 8 -8 14 -3 14 5 0 13 -5 16 -11z"/>
<path d="M6016 8080 c6 -6 25 -15 44 -20 43 -12 26 3 -20 19 -22 7 -31 8 -24
1z"/>
<path d="M6310 7920 c0 -5 5 -10 11 -10 5 0 7 5 4 10 -3 6 -8 10 -11 10 -2 0
-4 -4 -4 -10z"/>
<path d="M5225 7860 c4 -6 11 -8 16 -5 14 9 11 15 -7 15 -8 0 -12 -5 -9 -10z"/>
<path d="M4045 7850 c-3 -5 1 -10 9 -10 9 0 16 5 16 10 0 6 -4 10 -9 10 -6 0
-13 -4 -16 -10z"/>
<path d="M5980 7801 c0 -8 52 -23 59 -16 1 2 0 8 -4 14 -8 13 -55 15 -55 2z"/>
<path d="M5936 7772 c-3 -6 -1 -14 5 -17 14 -9 20 -2 10 14 -6 8 -11 9 -15 3z"/>
<path d="M3470 7719 c0 -5 5 -7 10 -4 6 3 10 8 10 11 0 2 -4 4 -10 4 -5 0 -10
-5 -10 -11z"/>
<path d="M5445 7710 c3 -5 8 -10 11 -10 2 0 4 5 4 10 0 6 -5 10 -11 10 -5 0
-7 -4 -4 -10z"/>
<path d="M3974 7699 c-3 -6 1 -18 9 -27 13 -13 19 -13 31 -2 9 7 16 19 16 26
0 17 -46 19 -56 3z"/>
<path d="M4171 7703 c-1 -7 -9 -13 -18 -13 -15 0 -16 -2 -3 -10 18 -11 35 2
27 22 -4 9 -6 10 -6 1z"/>
<path d="M6705 7688 c3 -7 14 -19 24 -25 16 -10 19 -9 17 5 -2 9 -7 17 -12 17
-5 0 -15 4 -21 8 -8 5 -11 3 -8 -5z"/>
<path d="M3851 7659 c5 -11 27 -18 61 -22 60 -6 77 3 53 27 -13 12 -31 16 -70
14 -45 -3 -52 -5 -44 -19z"/>
<path d="M6187 7649 c7 -7 15 -10 18 -7 3 3 -2 9 -12 12 -14 6 -15 5 -6 -5z"/>
<path d="M4644 7552 c4 -7 14 -12 22 -12 11 0 13 -4 5 -17 -6 -12 -5 -26 5
-45 15 -28 41 -40 31 -14 -7 17 19 29 45 20 15 -5 19 -2 16 13 -2 10 -9 19
-16 19 -6 1 -17 2 -23 3 -6 0 -9 8 -5 16 3 9 0 15 -8 15 -7 0 -28 3 -46 7 -24
4 -31 3 -26 -5z"/>
<path d="M3800 7453 c0 -35 -36 -73 -69 -73 -28 0 -71 43 -71 71 0 19 -4 20
-32 15 -18 -3 -78 -11 -133 -17 -55 -5 -120 -15 -145 -20 -97 -20 -260 -64
-260 -70 0 -12 49 -16 54 -5 3 7 8 7 14 -3 11 -16 56 -5 46 11 -5 8 -1 9 12 4
10 -5 28 -9 39 -10 34 -3 46 -15 35 -35 -6 -12 -5 -22 2 -29 9 -9 9 -12 -1
-12 -7 0 -9 -5 -6 -10 5 -8 11 -7 21 1 13 11 13 9 3 -14 -14 -31 -27 -36 -25
-10 0 12 -7 19 -21 21 -16 2 -23 -2 -23 -12 0 -9 5 -16 10 -16 6 0 10 -6 10
-12 0 -7 6 -25 14 -39 10 -20 11 -29 1 -42 -7 -9 -15 -14 -18 -10 -4 3 -7 -1
-7 -10 0 -9 4 -17 8 -17 5 0 19 -20 31 -45 27 -54 19 -71 -35 -81 -39 -7 -64
8 -64 37 0 11 -6 19 -12 19 -9 0 -8 3 2 9 8 6 18 7 22 5 4 -3 8 2 8 10 0 9 7
16 15 16 8 0 15 5 15 11 0 6 -10 9 -22 7 -13 -2 -33 6 -47 18 -14 13 -44 24
-75 29 -59 7 -62 7 -58 -8 2 -6 -6 -3 -18 8 -18 16 -20 16 -14 2 4 -10 1 -17
-6 -17 -10 0 -10 -3 0 -15 10 -12 9 -15 -6 -16 -15 0 -16 -2 -4 -7 20 -9 24
-76 4 -68 -17 7 -18 -6 -1 -24 10 -12 9 -12 -5 -1 -17 12 -23 8 -19 -12 1 -5
-3 -6 -8 -2 -6 3 -8 12 -5 19 3 7 -3 19 -12 27 -16 12 -17 12 -9 -1 13 -20 15
-70 4 -70 -14 0 -10 -50 4 -50 7 0 3 -7 -7 -15 -15 -11 -17 -18 -9 -26 19 -19
53 0 60 32 6 31 20 46 31 34 3 -3 0 -10 -8 -15 -13 -8 -12 -10 3 -10 9 0 17 4
17 10 0 5 6 7 14 4 8 -3 35 2 61 11 26 8 50 14 52 11 2 -2 -21 -35 -51 -73
-31 -37 -56 -76 -56 -85 0 -22 17 -32 33 -20 7 5 45 24 85 41 54 24 77 30 86
22 10 -8 21 -7 42 4 16 8 34 15 41 15 7 0 10 7 7 15 -4 9 4 19 23 27 42 19
103 64 96 72 -3 3 1 6 10 6 9 0 33 9 54 19 37 19 261 67 270 57 9 -9 -30 -56
-51 -60 -85 -18 -86 -18 -63 -50 12 -16 16 -15 61 10 27 15 62 47 79 71 l31
43 132 0 c79 0 143 5 158 11 19 9 29 9 39 0 8 -6 33 -9 56 -7 47 4 74 30 64
61 -4 11 -6 29 -5 40 2 26 -30 93 -62 130 -14 17 -26 36 -26 44 0 8 -14 26
-31 40 -19 16 -31 37 -32 53 -2 34 -6 35 -194 44 l-153 7 0 -30z m162 -110
c26 -23 24 -78 -4 -97 -29 -21 -57 -20 -81 2 -16 14 -38 17 -136 16 -114 -2
-328 -26 -383 -44 -27 -9 -39 2 -18 15 6 4 8 11 5 16 -3 5 1 6 9 3 8 -3 74 6
148 21 73 15 180 29 238 32 104 6 146 16 135 33 -14 23 62 26 87 3z m287 -192
c16 -10 6 -31 -14 -31 -17 0 -28 17 -20 30 8 12 16 12 34 1z m-1185 -43 c-5
-7 4 -9 29 -4 29 5 39 3 55 -14 23 -25 18 -67 -9 -75 -10 -4 -19 -11 -19 -17
0 -7 -8 -3 -19 8 -10 10 -17 22 -15 26 2 3 -4 5 -13 3 -10 -1 -17 -9 -15 -16
2 -9 -2 -8 -15 3 -11 10 -18 29 -17 45 1 15 3 33 3 38 1 6 10 11 21 12 12 1
18 -3 14 -9z m113 -110 c-3 -8 -6 -5 -6 6 -1 11 2 17 5 13 3 -3 4 -12 1 -19z"/>
<path d="M4375 7426 c25 -9 32 -14 20 -15 -11 -1 -31 -10 -44 -20 -14 -10 -31
-17 -38 -14 -18 7 -29 -27 -12 -38 8 -5 20 -7 27 -4 7 3 10 0 7 -5 -3 -6 3
-10 14 -10 12 0 21 5 21 11 0 8 6 7 17 -2 14 -12 16 -12 9 1 -4 8 0 6 8 -4 14
-18 17 -18 33 -4 13 11 36 15 79 13 72 -3 87 -10 79 -36 -4 -13 -2 -19 6 -17
7 2 13 -4 14 -12 0 -12 17 -16 80 -18 43 -1 82 -6 85 -10 9 -13 30 -12 28 0
-2 7 4 12 12 10 9 -1 6 6 -9 18 -13 11 -29 20 -37 20 -8 0 -15 5 -15 10 -1 6
-3 15 -4 20 -1 6 -3 13 -4 16 0 4 -8 1 -16 -6 -9 -7 -18 -10 -22 -6 -3 3 0 6
8 6 30 1 -26 30 -57 30 -48 0 -64 9 -64 36 0 14 -7 27 -15 31 -19 7 -34 -5
-20 -15 6 -4 11 -17 12 -29 3 -26 -27 -32 -49 -10 -7 8 -20 11 -28 9 -13 -4
-13 -3 -2 10 11 14 7 17 -35 26 -26 6 -66 13 -88 16 l-40 6 40 -14z m303 -121
c-19 -33 -21 -34 -33 -18 -9 12 -10 20 -3 24 6 4 7 12 4 18 -5 7 3 11 23 11
l30 0 -21 -35z"/>
<path d="M5865 7430 c-7 -11 2 -30 14 -30 5 0 11 9 14 20 5 21 -16 29 -28 10z"/>
<path d="M4873 7415 c-8 -21 -1 -26 43 -32 33 -4 37 -3 26 9 -7 10 -22 13 -39
10 -18 -3 -24 -1 -19 7 4 6 12 8 18 5 7 -4 8 -2 4 4 -10 17 -26 15 -33 -3z"/>
<path d="M4962 7359 c2 -7 10 -15 17 -17 8 -3 12 1 9 9 -2 7 -10 15 -17 17 -8
3 -12 -1 -9 -9z"/>
<path d="M2942 7305 c-40 -19 -72 -37 -72 -40 0 -13 85 7 97 23 11 13 17 13
40 3 24 -11 25 -10 13 4 -11 13 -10 15 3 9 26 -10 41 6 20 22 -24 18 -18 19
-101 -21z"/>
<path d="M3154 7298 c-4 -6 -3 -8 4 -4 5 3 12 1 14 -5 2 -7 11 -10 18 -7 11 3
10 8 -7 16 -16 9 -24 9 -29 0z"/>
<path d="M4335 7289 c-5 -14 0 -29 17 -46 12 -15 17 -23 11 -19 -16 9 -18 -50
-3 -59 8 -5 7 -12 -1 -22 -10 -12 -10 -16 1 -23 9 -6 17 -4 22 3 7 11 12 2 9
-16 -1 -5 3 -6 8 -3 5 3 7 15 4 26 -3 11 -9 17 -14 14 -5 -3 -9 0 -9 5 0 18
12 13 42 -16 24 -23 30 -25 38 -13 5 8 7 22 5 30 -8 24 36 23 62 -2 22 -21 22
-45 0 -31 -7 4 -6 0 2 -10 11 -15 11 -17 -2 -17 -8 0 -18 6 -20 13 -3 7 -6 7
-6 1 -1 -6 8 -19 19 -29 17 -15 20 -16 20 -3 0 25 27 43 44 29 8 -6 18 -11 22
-10 5 1 11 1 14 0 3 -1 32 -3 65 -5 33 -2 67 -5 75 -7 8 -2 14 1 13 8 -2 7 4
10 12 7 8 -4 15 -1 15 6 0 10 3 10 14 1 10 -8 16 -9 21 -1 3 6 11 8 16 4 5 -3
7 -10 3 -15 -3 -5 0 -8 8 -7 7 2 12 -2 11 -9 -2 -7 3 -10 11 -7 8 3 17 1 21
-5 3 -7 -2 -11 -14 -11 -33 0 -36 1 -33 13 2 6 -5 4 -14 -4 -22 -18 -55 -19
-75 -2 -15 12 -17 10 -22 -13 -3 -16 1 -38 10 -51 12 -18 13 -26 3 -37 -9 -12
-5 -15 27 -18 24 -2 37 -8 35 -15 -3 -16 24 -17 34 -1 4 7 3 8 -4 4 -7 -4 -12
-2 -12 3 0 11 6 12 65 16 16 1 31 7 33 14 2 6 8 9 12 6 5 -3 7 4 5 15 -2 13 0
18 7 14 5 -4 14 -1 18 5 5 9 11 7 21 -5 9 -12 10 -15 2 -10 -19 11 -17 -59 2
-77 8 -8 11 -17 8 -21 -4 -3 0 -6 8 -6 12 0 12 -2 0 -9 -8 -5 -20 -7 -28 -4
-7 3 -13 1 -13 -3 0 -13 108 -43 131 -37 10 3 17 9 14 13 -3 5 -1 11 5 15 5 3
10 1 10 -4 0 -6 7 -11 15 -11 24 0 18 11 -32 64 -27 28 -39 43 -27 33 14 -12
23 -14 31 -6 8 8 17 4 32 -12 19 -20 21 -21 21 -5 0 15 3 16 14 7 11 -9 16 -9
22 0 5 8 3 9 -6 4 -9 -6 -11 -4 -5 4 5 9 16 5 38 -16 17 -15 26 -21 20 -13
-12 15 -13 20 -13 44 0 9 -7 12 -19 9 -10 -3 -22 1 -26 8 -6 8 -4 10 6 4 8 -5
6 0 -4 12 -18 20 -18 20 25 12 24 -4 49 -8 56 -9 8 0 12 -9 10 -22 -2 -13 3
-23 10 -24 6 -1 15 -3 20 -4 4 -1 11 -2 16 -1 35 6 63 -37 36 -54 -8 -5 -8
-11 0 -20 6 -7 8 -20 4 -29 -7 -18 -34 -22 -34 -4 0 6 -3 9 -6 5 -8 -8 28 -56
42 -57 6 0 17 6 23 14 9 11 8 15 -5 20 -26 10 -4 26 40 29 34 2 39 -1 42 -22
6 -32 24 -53 41 -47 17 7 53 -14 53 -31 0 -12 18 -17 46 -14 6 1 21 -10 34
-24 24 -26 61 -37 41 -12 -6 6 -23 27 -38 46 -24 30 -28 32 -34 15 -7 -19 -8
-19 -8 0 -1 10 -11 27 -23 37 -23 21 -32 24 -23 9 3 -5 -1 -10 -9 -10 -18 0
-21 11 -6 26 6 6 8 18 5 27 -7 17 -35 31 -35 17 0 -5 -7 -7 -15 -4 -8 4 -15
13 -15 21 0 9 5 11 13 7 8 -5 8 -2 -2 9 -15 18 -26 23 -16 7 9 -15 -4 -12 -21
4 -9 9 -10 16 -3 18 6 2 1 12 -11 23 -15 14 -19 15 -15 4 4 -10 0 -16 -10 -16
-9 0 -15 7 -13 17 3 17 -44 63 -103 98 -39 24 -54 28 -44 12 3 -5 -1 -10 -9
-10 -9 0 -16 3 -17 8 -2 18 -8 44 -11 46 -37 29 -84 54 -91 47 -14 -14 -59 1
-64 20 -3 11 -10 19 -16 19 -6 0 -7 3 -3 7 5 5 -116 73 -131 73 -2 0 -1 -11 1
-25 6 -31 -3 -31 -31 -1 -16 16 -19 26 -12 33 8 8 4 13 -11 18 -24 8 -49 -8
-31 -19 6 -4 11 -17 11 -30 0 -24 38 -66 59 -66 11 0 11 -3 0 -17 -7 -10 -9
-15 -5 -11 5 4 16 2 24 -4 21 -18 46 -20 32 -3 -8 9 -7 14 4 18 14 5 24 -2 39
-29 4 -7 -4 -11 -21 -10 -15 1 -33 -3 -40 -8 -9 -6 -12 -5 -10 4 4 15 -48 25
-57 10 -8 -13 -25 -13 -25 1 0 5 5 7 12 3 7 -5 8 -3 3 5 -6 10 -13 8 -28 -8
l-21 -21 -27 26 c-24 23 -28 24 -42 10 -14 -15 -17 -14 -32 0 -11 12 -13 20
-6 27 7 7 7 15 -1 26 -7 9 0 5 15 -8 23 -21 27 -22 27 -7 0 9 5 14 10 11 6 -4
7 -11 4 -17 -5 -7 -2 -8 5 -3 15 9 0 27 -26 31 -75 12 -84 12 -72 -2 7 -8 9
-17 5 -21 -3 -3 -6 -1 -6 5 0 7 -3 11 -7 11 -5 -1 -11 0 -15 1 -5 1 -11 3 -15
4 -5 1 -18 7 -30 14 -27 15 -29 6 -6 -22 13 -16 10 -14 -12 4 -17 14 -32 26
-35 28 -2 1 8 14 23 28 27 25 38 46 14 25 -10 -8 -17 -7 -27 2 -12 10 -12 9
-2 -4 15 -21 3 -32 -17 -16 -14 11 -14 10 -2 -5 9 -12 10 -18 2 -18 -18 0 -17
50 1 61 6 4 1 10 -11 14 -14 4 -32 0 -48 -10 -23 -15 -24 -19 -9 -27 9 -5 14
-14 10 -19 -3 -5 -2 -9 3 -8 20 3 25 -2 13 -16 -15 -19 -30 -19 -30 -2 0 26
-45 67 -73 67 -16 0 -37 4 -47 10 -15 8 -20 6 -25 -11z m105 -58 c0 -15 -28
-20 -39 -8 -7 10 -4 13 15 15 13 1 24 -2 24 -7z m460 -21 c0 -5 -2 -10 -4 -10
-3 0 -8 5 -11 10 -3 6 -1 10 4 10 6 0 11 -4 11 -10z m150 -19 c0 -5 -11 -11
-25 -13 -26 -5 -35 6 -12 15 20 9 37 8 37 -2z m-395 -46 c1 -31 0 -32 -24 -24
-13 6 -30 8 -36 5 -7 -2 -18 0 -25 4 -19 12 5 40 30 35 10 -2 24 3 31 11 16
19 24 9 24 -31z m-90 15 c-3 -5 -13 -10 -21 -10 -8 0 -12 5 -9 10 3 6 13 10
21 10 8 0 12 -4 9 -10z m-115 -15 c10 -12 10 -15 -3 -15 -8 0 -17 7 -21 15 -3
8 -2 15 3 15 5 0 14 -7 21 -15z m580 -55 c3 -1 8 -2 13 -1 4 0 6 -2 6 -6 -3
-21 3 -24 19 -12 15 12 16 12 5 -2 -7 -9 -10 -19 -6 -23 4 -4 0 -4 -10 0 -10
4 -17 1 -17 -6 0 -10 -3 -10 -15 0 -8 7 -22 10 -30 6 -8 -3 -24 4 -36 17 -12
12 -19 17 -15 10 7 -14 -10 -28 -18 -14 -3 5 1 14 9 21 8 7 15 9 15 4 0 -4 4
-4 10 2 8 8 53 11 70 4z m40 -85 c9 -11 16 -12 25 -5 8 7 17 3 31 -13 10 -12
12 -16 4 -9 -8 6 -20 12 -28 12 -8 0 -10 -5 -6 -12 5 -9 2 -9 -9 1 -16 13 -22
8 -17 -14 1 -5 -9 -1 -22 10 -13 11 -25 21 -28 23 -5 3 21 22 31 22 4 0 12 -7
19 -15z m-215 -32 c-2 -7 1 -13 7 -13 6 0 8 -3 5 -6 -4 -4 -13 -1 -22 6 -11 9
-15 9 -15 1 0 -8 -6 -7 -16 3 -12 13 -13 18 -2 29 15 17 51 0 43 -20z"/>
<path d="M4281 7277 c-6 -8 -8 -17 -4 -20 12 -13 22 -7 20 13 -2 24 -1 24 -16
7z"/>
<path d="M3073 7262 c-8 -5 -8 -12 3 -26 11 -16 16 -17 28 -6 13 10 13 14 1
26 -16 16 -16 16 -32 6z"/>
<path d="M2975 7231 c-89 -33 -135 -54 -135 -63 0 -12 6 -10 50 12 47 24 64
25 56 5 -4 -12 0 -14 22 -8 15 5 61 7 102 5 72 -2 74 -2 46 13 -34 18 -58 19
-74 3 -9 -9 -12 -9 -12 1 0 7 -4 10 -8 7 -4 -2 -14 -1 -22 4 -11 7 -8 11 13
19 15 6 27 13 27 16 0 8 -10 5 -65 -14z"/>
<path d="M4308 7241 c-14 -5 -14 -9 -3 -24 12 -16 13 -16 18 5 7 26 7 27 -15
19z"/>
<path d="M2820 7161 c0 -7 -4 -9 -10 -6 -5 3 -10 1 -10 -4 0 -6 4 -11 9 -11
13 0 25 20 17 27 -3 4 -6 1 -6 -6z"/>
<path d="M2759 7137 c-14 -10 -14 -16 -2 -44 7 -18 14 -33 16 -33 1 0 24 7 51
15 62 19 76 19 76 0 0 -8 -9 -15 -20 -15 -24 0 -70 -21 -70 -32 0 -4 5 -8 11
-8 5 0 7 -5 3 -11 -5 -8 -10 -6 -16 5 -8 14 -14 13 -61 -10 -59 -30 -191 -116
-224 -147 -19 -16 -20 -23 -10 -35 10 -13 9 -14 -9 -8 -15 4 -23 2 -27 -8 -7
-19 64 -58 83 -46 17 11 33 2 24 -12 -11 -17 23 -2 56 25 16 12 29 29 30 37 0
12 2 12 9 2 6 -11 11 -10 25 3 19 19 21 12 5 -17 -8 -15 -8 -19 0 -14 6 4 11
2 11 -4 0 -6 5 -8 10 -5 6 3 10 11 10 16 0 6 -5 7 -12 3 -6 -4 -8 -3 -5 4 8
12 24 11 54 -6 31 -17 36 -15 29 12 -4 15 -1 28 6 33 21 13 39 12 44 -2 4 -10
11 -10 30 -1 35 16 30 33 -13 41 -51 9 -54 12 -41 40 13 29 -1 52 -35 57 -12
2 -22 10 -22 18 0 8 7 13 15 12 41 -10 50 -10 45 -2 -3 5 -1 11 5 15 5 3 10 1
10 -4 0 -6 7 -11 15 -11 18 0 20 16 3 26 -7 5 -4 10 11 15 12 5 25 17 29 26 4
10 14 18 22 18 10 0 16 11 17 33 1 17 -3 32 -8 32 -6 0 -7 -4 -4 -10 3 -5 -1
-10 -9 -10 -9 0 -16 -3 -16 -8 0 -12 -64 -8 -73 5 -4 7 -14 10 -21 7 -8 -3
-17 -1 -21 5 -8 14 -16 13 -36 -2z m56 -37 c3 -5 -3 -10 -14 -10 -12 0 -21 5
-21 10 0 6 6 10 14 10 8 0 18 -4 21 -10z m-178 -212 c-17 -11 -28 1 -14 16 8
10 14 11 19 3 4 -6 2 -15 -5 -19z m33 -48 c0 -5 -8 -10 -17 -10 -15 0 -16 2
-3 10 19 12 20 12 20 0z m-133 -6 c-3 -3 -12 -4 -19 -1 -8 3 -5 6 6 6 11 1 17
-2 13 -5z"/>
<path d="M2653 7071 c-43 -32 -99 -89 -92 -95 2 -2 46 17 96 41 73 35 90 47
80 57 -26 26 -46 25 -84 -3z m-3 -14 c0 -8 -38 -47 -45 -47 -5 0 2 11 15 25
22 24 30 29 30 22z"/>
<path d="M4510 7042 c0 -12 -3 -12 -15 -2 -13 10 -18 11 -28 1 -9 -10 -8 -15
7 -27 25 -18 70 -19 60 -1 -4 6 3 2 15 -10 25 -26 79 -31 87 -9 10 26 -29 55
-79 59 -37 3 -47 1 -47 -11z"/>
<path d="M4671 7031 c-7 -5 -10 -14 -7 -20 11 -17 22 -13 22 9 0 11 0 20 -1
20 0 0 -6 -4 -14 -9z"/>
<path d="M5260 6941 c0 -5 5 -13 10 -16 6 -3 10 -2 10 4 0 5 -4 13 -10 16 -5
3 -10 2 -10 -4z"/>
<path d="M4390 6888 c0 -4 14 -8 30 -8 17 0 30 2 30 4 0 2 -13 6 -30 8 -16 3
-30 1 -30 -4z"/>
<path d="M5155 6880 c3 -5 10 -10 16 -10 5 0 9 5 9 10 0 6 -7 10 -16 10 -8 0
-12 -4 -9 -10z"/>
<path d="M5233 6871 c-13 -21 -6 -41 14 -41 12 0 14 -7 10 -28 -5 -26 -4 -28
29 -28 25 0 33 4 29 14 -2 7 0 10 5 7 6 -3 10 1 10 10 0 8 -7 18 -15 21 -8 4
-15 10 -15 16 0 5 5 6 10 3 6 -3 19 -3 30 0 17 6 18 8 6 21 -16 16 -30 19 -22
5 4 -5 -3 -7 -14 -4 -11 3 -18 8 -16 12 2 3 -8 7 -23 7 -16 1 -32 -6 -38 -15z"/>
<path d="M4260 6831 c0 -5 9 -7 20 -4 11 3 20 7 20 9 0 2 -9 4 -20 4 -11 0
-20 -4 -20 -9z"/>
<path d="M7298 6833 c7 -3 16 -2 19 1 4 3 -2 6 -13 5 -11 0 -14 -3 -6 -6z"/>
<path d="M5631 6811 c13 -11 26 -17 28 -15 5 5 -30 33 -43 34 -4 0 2 -9 15
-19z"/>
<path d="M2820 6806 c0 -9 5 -16 10 -16 6 0 10 4 10 9 0 6 -4 13 -10 16 -5 3
-10 -1 -10 -9z"/>
<path d="M2740 6760 c-17 -17 -27 -40 -17 -40 1 0 15 14 30 30 31 33 19 42
-13 10z"/>
<path d="M2654 6735 c-17 -18 -39 -44 -49 -59 -17 -25 -17 -26 1 -20 11 4 28
14 38 23 16 13 18 13 11 1 -4 -8 -15 -24 -24 -35 -8 -11 4 -2 27 20 46 43 49
47 27 39 -11 -5 -14 -2 -8 12 3 11 10 21 14 24 4 3 5 10 1 16 -4 7 -19 -2 -38
-21z"/>
<path d="M3588 6763 c7 -3 16 -2 19 1 4 3 -2 6 -13 5 -11 0 -14 -3 -6 -6z"/>
<path d="M5680 6760 c0 -5 18 -28 40 -52 47 -51 53 -39 10 20 -29 40 -50 54
-50 32z"/>
<path d="M4898 6743 c7 -3 16 -2 19 1 4 3 -2 6 -13 5 -11 0 -14 -3 -6 -6z"/>
<path d="M2371 6706 c-6 -8 -11 -18 -10 -22 4 -24 -2 -36 -16 -30 -11 4 -31
-18 -70 -78 -58 -89 -63 -101 -42 -109 10 -4 13 2 10 21 -4 25 -3 26 10 9 16
-19 49 -13 41 8 -8 19 51 76 64 63 12 -12 32 -2 32 15 0 7 -4 6 -10 -3 -5 -8
-11 -12 -14 -10 -2 3 4 16 15 29 15 18 19 20 19 7 0 -10 4 -15 10 -11 5 3 6
13 3 22 -4 11 -3 14 6 9 6 -4 11 -4 10 1 -1 4 -1 15 0 23 1 13 2 13 11 0 8
-12 10 -10 10 10 0 18 3 21 9 12 6 -10 10 -8 14 9 8 28 -5 44 -28 35 -11 -4
-15 -13 -12 -26 3 -10 -1 -24 -8 -30 -16 -13 -50 23 -42 45 8 19 3 19 -12 1z"/>
<path d="M3268 6683 c7 -3 16 -2 19 1 4 3 -2 6 -13 5 -11 0 -14 -3 -6 -6z"/>
<path d="M2812 6614 c-7 -8 -12 -21 -10 -29 2 -10 9 -4 20 15 18 32 12 40 -10
14z"/>
<path d="M3015 6620 c-3 -5 -1 -10 4 -10 6 0 11 5 11 10 0 6 -2 10 -4 10 -3 0
-8 -4 -11 -10z"/>
<path d="M3070 6590 c-9 -6 -10 -10 -3 -10 6 0 15 5 18 10 8 12 4 12 -15 0z"/>
<path d="M2335 6540 c-3 -6 1 -7 9 -4 18 7 21 14 7 14 -6 0 -13 -4 -16 -10z"/>
<path d="M2813 6502 c-58 -28 -64 -37 -33 -45 15 -4 31 5 56 30 19 19 34 36
32 38 -2 1 -27 -9 -55 -23z"/>
<path d="M2713 6453 c-24 -9 -13 -31 18 -38 17 -4 33 -4 36 -1 4 3 1 6 -6 6
-7 0 -9 5 -5 11 3 6 0 15 -7 20 -15 10 -18 10 -36 2z"/>
<path d="M2820 6430 c0 -13 11 -13 30 0 12 8 11 10 -7 10 -13 0 -23 -4 -23
-10z"/>
<path d="M2780 6390 c0 -5 5 -10 11 -10 5 0 7 5 4 10 -3 6 -8 10 -11 10 -2 0
-4 -4 -4 -10z"/>
<path d="M2572 6360 c-27 -25 -27 -30 -3 -23 11 3 21 13 24 24 6 24 6 24 -21
-1z"/>
<path d="M2802 6338 c-29 -35 -23 -35 28 -2 46 31 48 34 17 32 -12 -1 -33 -15
-45 -30z"/>
<path d="M2500 6320 c-14 -11 -18 -18 -9 -14 10 3 20 1 24 -5 3 -6 1 -11 -4
-11 -6 0 -11 -5 -11 -12 0 -18 26 12 35 40 8 27 -2 28 -35 2z"/>
<path d="M3945 6333 c-10 -3 -62 -25 -115 -50 -52 -25 -151 -63 -219 -85 -199
-65 -408 -181 -682 -377 -41 -29 -49 -32 -69 -21 -18 10 -25 9 -38 -4 -12 -12
-13 -18 -3 -30 10 -12 1 -24 -58 -72 -47 -39 -67 -62 -61 -68 15 -15 12 -63
-6 -80 -19 -19 -38 -20 -64 -4 -23 15 -46 -5 -219 -192 -158 -172 -362 -432
-349 -446 2 -2 21 10 41 27 61 50 62 28 1 -41 -125 -143 -225 -339 -167 -328
14 2 91 95 169 202 7 11 16 17 20 14 3 -4 -16 -48 -41 -100 -57 -112 -102
-246 -106 -310 -4 -59 7 -73 17 -22 8 44 56 148 80 176 20 21 42 25 24 4 -26
-32 -61 -191 -67 -306 -7 -135 7 -221 62 -374 19 -54 35 -100 35 -102 0 -2 7
-4 15 -4 13 0 15 30 15 213 1 189 2 209 15 187 8 -14 15 -32 15 -40 1 -25 26
-51 44 -44 21 8 21 24 -2 24 -16 0 -17 8 -11 88 4 48 17 119 29 157 25 80 70
185 79 185 3 0 6 -52 6 -116 0 -103 2 -117 19 -130 23 -16 36 -4 36 33 0 11
16 76 36 143 22 77 33 133 29 150 -4 18 -1 31 10 40 8 7 15 19 15 27 0 21 109
203 122 203 5 0 8 -8 6 -17 -7 -47 52 -59 90 -18 18 19 23 33 20 67 -2 36 -7
44 -25 46 -13 2 -23 8 -23 13 0 25 90 142 218 285 51 57 87 101 80 99 -8 -3
-22 1 -32 8 -21 16 -16 44 9 53 19 8 57 -24 48 -40 -3 -6 50 43 118 109 68 65
131 126 140 135 9 8 38 35 65 60 212 195 259 244 337 360 62 92 217 253 274
287 24 14 43 27 43 29 0 2 -1 3 -2 3 -2 -1 -12 -4 -23 -6z m-136 -109 c-14
-18 -24 -11 -15 11 3 9 11 13 16 10 8 -5 7 -11 -1 -21z m-1234 -785 c4 -6 5
-12 2 -15 -7 -7 -37 7 -37 17 0 13 27 11 35 -2z m305 -9 c0 -5 -4 -10 -10 -10
-5 0 -10 5 -10 10 0 6 5 10 10 10 6 0 10 -4 10 -10z m-200 -141 c0 -6 -31 -48
-68 -93 -37 -44 -99 -120 -137 -168 -96 -121 -97 -102 -2 53 42 69 172 219
190 219 9 0 17 -5 17 -11z m-62 -348 c3 -8 -1 -12 -9 -9 -7 2 -15 10 -17 17
-3 8 1 12 9 9 7 -2 15 -10 17 -17z m-328 -178 c-8 -15 -28 -52 -44 -82 -27
-49 -30 -52 -43 -35 -22 29 -15 56 28 117 38 53 43 57 57 43 14 -13 14 -19 2
-43z m-96 -207 c-3 -15 -8 -25 -11 -23 -2 3 -1 17 3 31 3 15 8 25 11 23 2 -3
1 -17 -3 -31z m-34 -321 c0 -14 -4 -25 -10 -25 -11 0 -14 33 -3 43 11 11 13 8
13 -18z"/>
<path d="M3488 6317 c-47 -18 -31 -27 20 -10 26 9 49 17 51 19 10 8 -46 1 -71
-9z"/>
<path d="M2871 6303 c-13 -9 -40 -25 -60 -35 -25 -13 -28 -17 -11 -12 26 6
100 50 100 59 0 8 -4 6 -29 -12z"/>
<path d="M2726 6295 c-3 -8 -2 -15 3 -15 5 0 14 7 21 15 10 12 10 15 -3 15 -8
0 -17 -7 -21 -15z"/>
<path d="M2523 6262 c-13 -12 -23 -27 -23 -33 0 -6 -4 -7 -10 -4 -5 3 -10 -4
-10 -15 0 -16 4 -20 16 -16 8 3 12 2 9 -4 -3 -6 -1 -10 4 -10 6 0 11 4 11 9 0
5 14 14 30 20 17 5 30 15 30 21 0 6 -4 8 -10 5 -16 -10 -12 12 5 29 20 19 19
22 -7 22 -12 0 -32 -11 -45 -24z"/>
<path d="M2600 6280 c0 -5 5 -10 10 -10 6 0 10 5 10 10 0 6 -4 10 -10 10 -5 0
-10 -4 -10 -10z"/>
<path d="M2455 6260 c3 -5 14 -10 23 -10 15 0 15 2 2 10 -20 13 -33 13 -25 0z"/>
<path d="M2613 6214 c-12 -13 -25 -24 -28 -24 -3 0 -13 -4 -23 -10 -14 -9 -13
-10 8 -4 27 7 79 44 79 57 2 14 -14 6 -36 -19z"/>
<path d="M2310 6180 c-19 -16 -29 -30 -22 -30 13 0 25 10 51 43 19 24 11 21
-29 -13z"/>
<path d="M2090 6179 c0 -5 5 -7 10 -4 6 3 10 8 10 11 0 2 -4 4 -10 4 -5 0 -10
-5 -10 -11z"/>
<path d="M2490 6139 c0 -22 13 -25 29 -5 9 11 7 15 -9 19 -15 4 -20 0 -20 -14z"/>
<path d="M2194 6079 c-62 -56 -100 -99 -88 -99 4 0 31 18 60 40 29 22 61 40
71 41 16 0 16 1 -2 9 -19 8 -19 9 1 9 24 1 36 21 24 40 -5 10 -24 -2 -66 -40z"/>
<path d="M2556 6104 c-3 -8 -10 -12 -16 -9 -6 3 -17 0 -25 -9 -9 -9 -11 -17
-5 -21 5 -3 10 -1 10 4 0 6 6 11 13 11 19 1 49 27 39 34 -6 3 -13 -1 -16 -10z"/>
<path d="M2439 6074 c-7 -9 -22 -20 -34 -24 -14 -6 -15 -9 -4 -9 8 -1 26 10
39 24 13 14 21 25 18 25 -3 0 -12 -7 -19 -16z"/>
<path d="M2864 6044 c-18 -14 -18 -15 4 -4 12 6 22 13 22 15 0 8 -5 6 -26 -11z"/>
<path d="M2455 6030 c-3 -5 -1 -10 4 -10 6 0 11 5 11 10 0 6 -2 10 -4 10 -3 0
-8 -4 -11 -10z"/>
<path d="M2390 5999 c-24 -16 -38 -29 -31 -29 10 0 11 -3 2 -14 -9 -10 -9 -16
-1 -21 6 -4 9 -13 6 -21 -3 -8 0 -11 10 -7 11 4 12 9 5 16 -16 16 -13 30 3 24
8 -3 17 1 20 9 3 8 1 14 -5 14 -6 0 -8 4 -4 10 3 5 12 7 19 4 7 -3 19 2 26 11
9 11 9 15 1 15 -7 0 -9 5 -6 10 8 14 6 13 -45 -21z m40 1 c0 -5 -5 -10 -11
-10 -5 0 -7 5 -4 10 3 6 8 10 11 10 2 0 4 -4 4 -10z"/>
<path d="M2820 6015 c-8 -9 -8 -15 -2 -15 12 0 26 19 19 26 -2 2 -10 -2 -17
-11z"/>
<path d="M2177 5970 c-51 -47 -141 -154 -143 -172 -1 -4 -2 -13 -3 -19 0 -5
-5 -8 -10 -5 -9 6 -39 -38 -54 -77 -8 -22 1 -17 61 31 30 25 40 38 32 46 -5 5
-10 16 -10 23 0 16 47 18 52 2 2 -6 12 0 23 12 19 21 19 22 1 16 -14 -6 -17
-4 -12 9 5 12 2 15 -9 10 -11 -4 -14 -2 -8 7 8 12 9 17 12 37 0 6 8 10 17 10
9 0 24 10 34 22 17 21 18 22 45 4 29 -19 45 -15 27 7 -7 8 -9 17 -5 20 3 4 1
7 -5 7 -6 0 -14 -5 -17 -10 -9 -15 -25 -2 -18 15 3 8 14 15 25 15 11 0 26 6
33 14 12 12 12 15 0 20 -8 3 -36 -15 -68 -44z"/>
<path d="M2290 5990 c0 -6 7 -10 15 -10 8 0 15 2 15 4 0 2 -7 6 -15 10 -8 3
-15 1 -15 -4z"/>
<path d="M2260 5943 c0 -19 21 -27 31 -12 13 22 11 28 -11 26 -11 -1 -20 -7
-20 -14z"/>
<path d="M2326 5914 c-9 -24 -7 -27 9 -10 17 17 19 26 6 26 -5 0 -12 -7 -15
-16z"/>
<path d="M2176 5895 c3 -14 2 -25 -4 -25 -5 0 -12 -9 -15 -19 -3 -14 -1 -18 9
-14 8 3 14 8 14 12 0 5 25 13 55 20 30 7 55 16 55 21 0 5 -13 5 -28 1 -21 -6
-34 -4 -51 10 -32 26 -43 24 -35 -6z"/>
<path d="M2650 5905 c-7 -8 -18 -15 -24 -15 -13 0 -114 -101 -140 -140 -9 -13
-16 -36 -16 -50 0 -18 3 -21 9 -11 7 11 9 11 14 0 3 -8 6 -3 6 10 1 31 37 88
61 96 16 5 58 55 45 55 -2 0 12 16 33 35 20 19 34 35 31 35 -4 0 -12 -7 -19
-15z m-50 -59 c0 -3 -4 -8 -10 -11 -5 -3 -10 -1 -10 4 0 6 5 11 10 11 6 0 10
-2 10 -4z"/>
<path d="M2301 5894 c0 -11 3 -14 6 -6 3 7 2 16 -1 19 -3 4 -6 -2 -5 -13z"/>
<path d="M2565 5880 c-3 -6 1 -7 9 -4 18 7 21 14 7 14 -6 0 -13 -4 -16 -10z"/>
<path d="M2173 5792 c-28 -31 -53 -67 -57 -80 -4 -12 -11 -20 -16 -17 -13 8
-130 -163 -130 -190 0 -3 9 -1 21 6 20 10 21 9 14 -23 -4 -18 -11 -38 -16 -43
-15 -19 -58 -149 -79 -238 -12 -52 -20 -122 -20 -173 0 -75 2 -85 17 -82 10 2
24 20 32 41 12 33 12 40 0 49 -12 8 -12 9 1 6 10 -3 20 10 31 41 9 25 28 72
43 103 15 32 28 67 29 78 1 11 5 20 10 20 4 0 5 5 1 12 -4 7 -3 8 4 4 13 -8
66 100 56 115 -3 5 -1 8 5 7 5 -2 17 6 26 17 15 19 15 17 9 -27 -3 -27 -4 -48
0 -48 10 0 58 109 52 119 -4 5 -1 13 5 17 8 5 9 3 4 -7 -8 -12 -6 -12 8 0 18
14 24 37 8 26 -5 -3 0 13 12 35 12 22 26 40 31 40 5 0 3 -7 -4 -15 -7 -9 -11
-17 -9 -20 2 -2 28 28 58 67 29 39 49 73 43 77 -5 3 -8 15 -6 26 2 11 -4 26
-14 33 -15 12 -14 13 11 7 23 -6 27 -4 27 13 0 16 -5 19 -22 15 -13 -3 -31
-13 -40 -21 -10 -8 -18 -11 -18 -6 0 5 -4 2 -10 -6 -8 -12 -10 -12 -15 2 -5
13 -14 16 -37 11 -24 -5 -30 -3 -26 8 2 8 14 19 26 25 16 8 19 13 10 22 -18
18 -21 16 -75 -46z m140 -145 c-35 -56 -37 -58 -29 -18 6 35 35 72 48 64 4 -2
-4 -23 -19 -46z"/>
<path d="M2441 5789 c-22 -22 -46 -51 -53 -62 -6 -13 3 -7 22 13 18 19 46 47
64 62 17 15 26 27 20 28 -6 0 -30 -18 -53 -41z"/>
<path d="M3386 5526 c-25 -30 -46 -61 -46 -70 0 -8 -70 -86 -156 -173 -214
-218 -398 -464 -515 -692 -30 -58 -65 -116 -79 -129 -17 -16 -21 -25 -12 -29
18 -7 16 -17 -22 -96 -39 -83 -142 -386 -149 -437 -2 -19 -2 -27 0 -17 2 9 8
17 12 17 5 0 2 -26 -5 -57 -56 -233 -56 -439 0 -601 35 -103 50 -95 43 24 -8
130 17 304 44 304 5 0 9 -55 10 -122 0 -118 25 -316 29 -238 2 40 18 88 19 57
1 -21 37 -135 51 -159 6 -10 10 -23 10 -29 0 -20 80 -170 113 -213 103 -133
257 -292 271 -279 13 13 4 35 -53 140 -32 59 -68 132 -80 161 -12 28 -30 75
-42 103 -26 65 -18 74 15 17 27 -46 112 -135 121 -126 3 3 -28 71 -70 152 -46
92 -75 160 -75 179 l0 32 21 -40 c11 -22 28 -47 36 -55 14 -13 15 -13 8 5 -32
86 -45 389 -24 555 12 98 15 106 38 86 23 -21 68 -36 87 -29 11 4 14 14 10 33
-3 20 1 33 14 45 11 10 21 38 25 68 4 29 12 58 18 65 8 10 7 16 -4 23 -11 7
-9 13 14 35 l29 27 -21 20 c-17 17 -22 18 -35 7 -9 -7 -16 -21 -16 -31 0 -23
-3 -23 -40 -4 -16 8 -31 24 -35 35 -9 28 78 281 170 495 195 451 192 441 251
755 8 47 29 118 45 159 16 41 28 76 26 78 -2 2 -25 -21 -51 -51z m-186 -490
c0 -3 -4 -8 -10 -11 -5 -3 -10 -1 -10 4 0 6 5 11 10 11 6 0 10 -2 10 -4z m-54
-332 c-3 -9 -6 -18 -6 -20 0 -3 -4 -3 -10 1 -11 7 -2 35 12 35 6 0 7 -7 4 -16z
m-366 -175 c15 -26 7 -45 -19 -52 -29 -7 -60 36 -41 58 18 21 47 19 60 -6z
m130 -333 c0 -31 -45 -63 -66 -45 -14 12 -19 51 -7 62 3 4 21 7 40 7 28 0 33
-3 33 -24z m-130 -1 c0 -8 -7 -15 -15 -15 -8 0 -15 7 -15 15 0 8 7 15 15 15 8
0 15 -7 15 -15z m-90 -241 c-17 -82 -35 -168 -38 -192 -4 -23 -11 -42 -17 -40
-20 5 3 206 35 308 30 96 29 95 41 83 7 -7 1 -56 -21 -159z m-160 117 c0 -12
-28 -22 -34 -12 -3 5 -3 11 1 15 9 9 33 7 33 -3z m410 -45 c0 -8 -4 -18 -10
-21 -5 -3 -10 3 -10 14 0 12 5 21 10 21 6 0 10 -6 10 -14z m-48 -45 c9 -16 14
-17 22 -7 8 10 20 11 43 5 29 -9 32 -13 38 -64 7 -53 6 -55 -28 -88 -39 -37
-58 -33 -76 16 -9 23 -14 25 -44 20 -29 -4 -37 -1 -56 23 -24 31 -22 65 6 97
22 24 79 23 95 -2z m-268 -498 c3 -48 9 -105 11 -128 3 -22 3 -33 -1 -25 -22
57 -38 90 -46 90 -9 0 -11 153 -1 163 17 17 31 -21 37 -100z"/>
<path d="M5630 5507 c-34 -12 -35 -14 -41 -77 -4 -36 -10 -234 -14 -441 -9
-432 -16 -399 88 -399 63 0 61 -3 83 114 19 98 66 229 102 281 32 46 74 59 91
27 16 -30 31 -141 39 -292 l7 -135 57 0 c33 0 63 6 70 13 10 10 13 65 13 215
0 191 -1 204 -23 245 -30 56 -73 82 -136 82 -67 0 -121 -34 -170 -104 -21 -31
-41 -56 -43 -56 -3 0 -3 17 0 38 11 64 28 442 22 462 -6 19 -53 40 -89 39 -12
0 -37 -5 -56 -12z"/>
<path d="M4183 5490 c-20 -8 -23 -17 -23 -67 0 -80 20 -424 29 -505 6 -55 5
-65 -6 -56 -7 6 -13 15 -13 20 0 17 -90 191 -166 318 -87 147 -140 220 -174
237 -32 16 -112 17 -132 1 -10 -9 -23 -70 -42 -198 -15 -102 -45 -286 -67
-409 -21 -123 -39 -242 -39 -264 l0 -40 39 6 c47 6 209 81 216 99 2 7 11 138
19 292 9 153 17 281 20 283 3 3 14 -13 25 -34 10 -22 52 -93 92 -159 39 -65
91 -153 115 -194 24 -41 67 -111 96 -155 l53 -80 43 1 c24 0 47 6 51 13 5 7
11 90 14 184 6 156 15 299 36 567 9 116 7 126 -31 139 -37 13 -124 13 -155 1z"/>
<path d="M1946 5464 c-10 -25 1 -29 14 -5 6 12 7 21 1 21 -5 0 -12 -7 -15 -16z"/>
<path d="M3242 5423 c-34 -30 -62 -61 -62 -69 0 -20 7 -18 43 16 18 17 44 38
58 47 35 21 53 50 35 56 -7 3 -41 -20 -74 -50z"/>
<path d="M2142 5330 c0 -19 2 -27 5 -17 2 9 2 25 0 35 -3 9 -5 1 -5 -18z"/>
<path d="M2191 5346 c-14 -16 -5 -42 16 -50 22 -9 33 2 33 35 0 22 -5 29 -19
29 -10 0 -24 -6 -30 -14z"/>
<path d="M2996 5245 c-4 -12 -1 -16 11 -13 18 3 21 20 5 26 -5 1 -12 -4 -16
-13z"/>
<path d="M8062 5200 c0 -19 2 -27 5 -17 2 9 2 25 0 35 -3 9 -5 1 -5 -18z"/>
<path d="M2953 5170 c-36 -42 -41 -60 -18 -60 8 0 15 4 15 9 0 5 12 24 26 41
16 18 23 35 18 40 -5 5 -23 -7 -41 -30z"/>
<path d="M4515 5136 c-54 -13 -95 -32 -95 -44 0 -12 212 -456 232 -484 19 -27
19 -27 -16 -96 -52 -103 -125 -159 -174 -133 -30 16 -42 13 -42 -9 0 -57 68
-129 130 -137 80 -11 138 44 196 188 27 65 234 678 234 692 0 12 -85 8 -101
-5 -13 -11 -87 -174 -119 -262 -6 -18 -14 -26 -20 -20 -5 5 -29 59 -53 119
-61 150 -69 167 -85 188 -17 20 -19 20 -87 3z"/>
<path d="M5155 5137 c-76 -30 -121 -72 -131 -126 -9 -44 19 -55 75 -30 61 27
106 25 137 -6 14 -14 24 -31 22 -37 -3 -7 -31 -17 -64 -23 -154 -29 -245 -121
-227 -231 7 -42 61 -93 101 -95 81 -5 130 10 166 50 25 27 32 26 40 -4 8 -33
61 -65 106 -65 39 0 128 38 149 63 23 29 6 49 -34 41 -30 -5 -41 -2 -61 17
l-25 23 6 166 c7 189 -1 220 -65 252 -41 21 -148 23 -195 5z m90 -346 c-1 -46
-5 -57 -29 -77 -51 -45 -126 -23 -126 37 0 46 75 102 130 96 23 -2 25 -6 25
-56z"/>
<path d="M6370 5129 c-77 -35 -127 -98 -116 -145 6 -23 34 -33 50 -17 11 12
80 33 107 33 30 0 79 -34 79 -56 0 -7 -12 -16 -27 -20 -83 -18 -113 -28 -157
-52 -77 -42 -116 -110 -108 -189 10 -103 169 -131 263 -46 38 34 39 35 39 12
1 -46 44 -79 103 -79 49 0 162 59 162 85 0 17 -6 20 -34 17 -19 -1 -45 5 -58
13 -24 16 -24 16 -21 188 3 158 1 175 -17 207 -12 19 -36 43 -55 52 -49 25
-152 24 -210 -3z m108 -341 c3 -50 0 -58 -24 -77 -37 -29 -98 -29 -118 1 -9
12 -16 30 -16 40 0 28 52 79 90 88 60 14 65 10 68 -52z"/>
<path d="M2890 5100 c0 -5 5 -10 10 -10 6 0 10 5 10 10 0 6 -4 10 -10 10 -5 0
-10 -4 -10 -10z"/>
<path d="M8246 4998 c-7 -21 -3 -48 6 -48 4 0 8 14 8 30 0 31 -8 40 -14 18z"/>
<path d="M8091 4924 c0 -11 3 -14 6 -6 3 7 2 16 -1 19 -3 4 -6 -2 -5 -13z"/>
<path d="M7790 4915 c0 -8 2 -15 4 -15 2 0 6 7 10 15 3 8 1 15 -4 15 -6 0 -10
-7 -10 -15z"/>
<path d="M6900 4909 c0 -5 5 -7 10 -4 6 3 10 8 10 11 0 2 -4 4 -10 4 -5 0 -10
-5 -10 -11z"/>
<path d="M7962 4860 c-18 -29 -15 -38 4 -12 9 13 14 25 12 27 -2 2 -9 -5 -16
-15z"/>
<path d="M8150 4740 c-6 -11 -8 -20 -6 -20 3 0 10 9 16 20 6 11 8 20 6 20 -3
0 -10 -9 -16 -20z"/>
<path d="M7727 4701 c-4 -17 -3 -21 5 -13 5 5 8 16 6 23 -3 8 -7 3 -11 -10z"/>
<path d="M8123 4695 c-3 -9 -3 -18 -1 -21 3 -3 8 4 11 16 6 23 -1 27 -10 5z"/>
<path d="M3282 4680 c0 -14 2 -19 5 -12 2 6 2 18 0 25 -3 6 -5 1 -5 -13z"/>
<path d="M7795 4680 c3 -5 8 -10 11 -10 2 0 4 5 4 10 0 6 -5 10 -11 10 -5 0
-7 -4 -4 -10z"/>
<path d="M3365 4542 c2 -28 9 -60 15 -70 9 -14 10 -13 5 6 -4 13 -11 45 -16
70 l-8 47 4 -53z"/>
<path d="M8197 4523 c-4 -3 -7 -11 -7 -17 0 -6 5 -5 12 2 6 6 9 14 7 17 -3 3
-9 2 -12 -2z"/>
<path d="M7625 4470 c-8 -13 5 -13 25 0 13 8 13 10 -2 10 -9 0 -20 -4 -23 -10z"/>
<path d="M7350 4363 c-17 -22 -21 -39 -19 -95 1 -38 -2 -72 -7 -76 -150 -126
-472 -319 -714 -430 -228 -103 -367 -184 -460 -264 -66 -58 -195 -132 -283
-163 -78 -28 -103 -44 -70 -46 10 0 41 -3 68 -6 179 -16 576 18 735 63 47 14
108 31 135 39 96 26 433 164 459 186 6 5 3 16 -7 27 -41 45 -2 122 61 122 45
-1 66 -15 79 -55 8 -24 16 -31 42 -33 25 -3 40 4 72 32 43 39 62 44 86 21 21
-22 45 -15 61 18 16 32 9 47 -22 47 -13 0 -31 9 -42 21 -18 20 -18 21 6 40 14
11 49 36 78 56 30 20 63 49 75 64 11 16 28 31 36 34 9 3 22 18 29 35 8 17 17
28 21 26 12 -8 -1 132 -14 155 -8 12 14 41 26 33 14 -8 11 6 -4 21 -12 11 -31
-3 -118 -87 -128 -123 -218 -193 -232 -179 -17 17 -1 36 94 108 104 79 212
176 189 170 -13 -3 -71 35 -130 86 -50 43 -46 43 -115 -21 -36 -34 -75 -66
-86 -73 -20 -10 -21 -9 -16 12 4 13 7 29 7 36 0 7 15 16 33 21 22 6 33 15 35
31 8 53 -52 69 -88 24z m-249 -476 c-1 -12 -15 -9 -19 4 -3 6 1 10 8 8 6 -3
11 -8 11 -12z m231 -99 c-16 -16 -37 4 -28 28 6 16 8 16 23 1 13 -13 15 -19 5
-29z"/>
<path d="M7864 4340 c-24 -9 -41 -30 -22 -26 7 2 24 7 37 13 30 12 15 24 -15
13z"/>
<path d="M7801 4286 c-7 -8 -8 -17 -3 -20 6 -3 12 3 15 14 6 24 4 25 -12 6z"/>
<path d="M3660 3870 c0 -11 9 -62 19 -113 11 -50 22 -135 26 -187 6 -100 28
-253 44 -307 8 -27 6 -34 -15 -52 -28 -24 -30 -50 -9 -91 17 -34 40 -41 32
-10 -3 13 0 20 9 20 8 0 14 -2 14 -4 0 -2 7 -32 16 -65 17 -70 10 -96 -33
-104 -29 -5 -63 11 -63 30 0 7 -4 13 -10 13 -18 0 -11 -36 11 -56 15 -13 19
-26 15 -46 -4 -19 0 -30 11 -36 14 -8 19 -24 22 -69 1 -20 21 -15 21 5 0 10
14 28 30 40 17 13 30 29 30 37 0 26 17 16 30 -17 23 -62 55 -132 123 -271 37
-76 67 -144 67 -151 0 -8 -8 -13 -17 -12 -12 0 -19 -7 -21 -21 -5 -31 35 -32
47 -2 6 19 18 6 86 -97 86 -131 211 -281 277 -335 55 -43 159 -111 164 -106 2
2 -9 21 -26 43 -57 74 -83 114 -77 120 3 3 33 -17 66 -44 72 -58 174 -113 250
-136 81 -24 105 -20 46 8 -27 12 -81 49 -120 80 -38 32 -76 61 -85 66 -11 6
-12 12 -4 20 8 8 19 5 40 -13 47 -39 253 -134 340 -157 146 -37 409 -44 409
-10 0 11 -34 23 -120 45 -178 45 -338 105 -323 120 2 2 22 -2 43 -10 56 -20
115 -19 115 1 0 11 -6 13 -19 9 -21 -6 -121 25 -195 62 -95 48 -269 182 -255
197 3 4 26 -5 50 -18 55 -30 152 -52 207 -47 6 1 12 8 12 16 0 9 -34 31 -86
55 -165 76 -281 181 -414 372 -67 96 -150 244 -150 268 0 25 30 4 95 -65 58
-63 77 -77 109 -82 33 -5 38 -4 35 12 -2 10 -17 23 -34 28 -16 5 -62 41 -101
78 -51 49 -79 69 -98 69 -30 0 -36 10 -132 232 -125 289 -164 349 -312 486
-61 57 -112 115 -137 156 -42 69 -55 80 -55 46z m61 -82 c7 -13 6 -16 -4 -12
-13 5 -37 46 -37 62 1 8 27 -24 41 -50z m448 -976 c13 -25 -1 -44 -30 -40 -41
5 -34 57 8 58 7 0 17 -8 22 -18z m91 -111 c0 -20 -17 -31 -37 -24 -13 5 -18
45 -7 56 11 11 44 -13 44 -32z m57 -270 c63 -90 160 -195 265 -286 26 -22 45
-42 42 -44 -2 -3 -23 13 -45 35 -37 36 -41 38 -53 22 -23 -31 -41 -20 -99 65
-32 45 -80 114 -108 152 -46 65 -99 156 -99 171 0 16 35 -26 97 -115z m64
-319 c28 -43 18 -41 -16 4 -16 20 -23 35 -16 33 7 -3 21 -19 32 -37z"/>
<path d="M7980 3808 c-249 -285 -438 -459 -605 -558 l-40 -24 55 60 c72 76
100 117 100 143 0 29 -14 26 -57 -13 -132 -117 -314 -227 -476 -285 -49 -18
-186 -51 -269 -66 -58 -9 -46 11 20 35 73 27 161 85 171 113 10 25 -3 57 -22
57 -7 0 -29 -16 -48 -36 -18 -20 -66 -51 -104 -70 -40 -18 -86 -49 -107 -72
l-37 -40 -118 -7 c-130 -7 -359 7 -498 31 -418 71 -458 75 -630 60 -150 -13
-285 -7 -349 14 -35 12 -59 13 -52 2 5 -8 121 -87 213 -145 78 -49 318 -173
400 -207 l82 -33 -6 -44 c-4 -27 -1 -48 7 -58 22 -26 99 -63 120 -58 16 4 23
0 27 -16 3 -12 13 -21 24 -21 16 0 18 7 16 41 -3 43 -29 68 -73 69 -29 0 -35
9 -23 32 6 11 17 17 27 14 9 -2 56 -16 105 -31 l87 -26 0 -39 c0 -44 19 -62
80 -76 61 -13 72 -12 64 5 -15 37 -14 48 5 65 18 17 29 17 164 6 397 -33 773
33 1090 192 144 72 157 79 157 95 0 16 4 16 -45 -2 -45 -16 -85 -19 -85 -6 0
4 42 29 93 53 97 48 197 121 259 191 60 67 45 70 -47 7 -78 -53 -338 -171
-374 -169 -13 0 -14 2 -1 6 23 9 174 98 227 135 129 89 250 196 330 293 144
172 277 444 226 462 -6 2 -44 -33 -83 -79z m-860 -886 c0 -8 -142 -53 -148
-47 -6 5 67 35 87 35 9 0 23 5 31 10 18 12 30 13 30 2z m-393 -134 c6 -7 13
-24 16 -37 7 -28 -31 -71 -62 -71 -43 0 -65 55 -41 101 12 22 72 27 87 7z"/>
<path d="M2370 3838 c0 -9 -3 -23 -6 -32 -3 -9 -1 -16 4 -16 16 0 26 40 13 53
-8 8 -11 7 -11 -5z"/>
<path d="M7693 3804 c-9 -23 13 -40 32 -24 8 7 15 19 15 26 0 19 -39 18 -47
-2z"/>
<path d="M2980 3716 c0 -14 5 -28 10 -31 6 -3 10 -1 10 4 0 6 7 11 15 11 21 0
19 17 -4 30 -28 14 -31 13 -31 -14z"/>
<path d="M7675 3720 c-4 -12 -1 -28 6 -36 16 -20 53 -14 57 9 8 41 -51 66 -63
27z"/>
<path d="M3056 3684 c-9 -22 -7 -44 2 -44 5 0 9 14 9 30 0 34 -2 37 -11 14z"/>
<path d="M7622 3578 c-18 -18 -15 -36 9 -49 28 -15 54 9 44 40 -7 23 -34 28
-53 9z"/>
<path d="M4250 3354 c0 -3 13 -24 28 -47 27 -39 127 -207 155 -260 7 -12 41
-65 76 -117 162 -240 362 -452 636 -674 20 -16 39 -26 42 -22 4 3 -1 12 -11
19 -16 12 -16 14 3 31 19 17 21 17 54 -8 19 -14 39 -26 45 -26 6 0 26 -13 44
-28 113 -95 288 -179 477 -228 51 -14 96 -23 98 -20 3 2 -8 12 -24 21 l-28 16
40 -6 c87 -12 204 -17 248 -11 36 6 47 11 47 25 0 15 11 20 63 25 34 4 69 11
77 16 10 7 -6 8 -45 4 -81 -8 -268 38 -244 60 2 2 33 -1 69 -6 103 -15 313 -3
390 22 127 43 282 124 411 217 56 40 63 69 15 66 -36 -3 -380 -110 -426 -133
-41 -21 -170 -54 -177 -46 -3 3 0 7 8 9 186 53 186 62 -4 63 -171 2 -288 22
-467 79 -208 68 -510 242 -731 422 -440 357 -442 358 -634 428 -55 20 -126 54
-158 75 -54 38 -77 48 -77 34z m1368 -1098 c56 -28 67 -46 27 -46 -30 0 -225
99 -225 115 0 33 23 32 83 -5 34 -20 86 -49 115 -64z m517 -47 c16 -15 -70
-10 -90 5 -18 13 -14 14 30 9 28 -3 54 -9 60 -14z m-322 -36 c74 -25 99 -50
46 -46 -42 2 -139 44 -139 59 0 19 2 18 93 -13z"/>
<path d="M3652 3305 c0 -16 2 -22 5 -12 2 9 2 23 0 30 -3 6 -5 -1 -5 -18z"/>
<path d="M6610 3310 c-8 -5 -11 -12 -7 -16 4 -4 13 -2 19 4 15 15 7 24 -12 12z"/>
<path d="M5680 3250 c0 -5 9 -10 19 -10 11 0 23 5 26 10 4 6 -5 10 -19 10 -14
0 -26 -4 -26 -10z"/>
<path d="M6152 3248 c-7 -7 -12 -20 -12 -30 0 -11 -7 -18 -19 -18 -27 0 -33
-25 -13 -50 15 -18 21 -19 55 -9 26 7 41 18 47 35 14 35 13 41 -10 64 -23 23
-31 25 -48 8z"/>
<path d="M5845 3240 c3 -5 15 -10 26 -10 10 0 19 5 19 10 0 6 -12 10 -26 10
-14 0 -23 -4 -19 -10z"/>
<path d="M3650 3220 c0 -5 5 -10 10 -10 6 0 10 5 10 10 0 6 -4 10 -10 10 -5 0
-10 -4 -10 -10z"/>
<path d="M2551 3100 c-1 -26 20 -90 29 -90 6 0 10 6 10 13 -1 19 -38 94 -39
77z"/>
<path d="M5325 2810 c-9 -15 4 -30 26 -30 23 0 26 25 3 34 -21 8 -22 8 -29 -4z"/>
<path d="M5442 2750 c51 -32 58 -35 58 -22 0 11 -73 52 -91 52 -8 0 7 -14 33
-30z"/>
<path d="M3331 2704 c0 -11 3 -14 6 -6 3 7 2 16 -1 19 -3 4 -6 -2 -5 -13z"/>
<path d="M3341 2664 c0 -11 3 -14 6 -6 3 7 2 16 -1 19 -3 4 -6 -2 -5 -13z"/>
<path d="M7210 2580 c0 -13 5 -18 15 -14 8 4 15 12 15 20 0 8 -7 14 -15 14 -8
0 -15 -9 -15 -20z"/>
<path d="M6600 2546 c-15 -19 -9 -56 11 -69 9 -5 28 -7 42 -3 23 5 27 12 27
40 0 34 -13 46 -50 46 -9 0 -23 -7 -30 -14z"/>
<path d="M3267 2521 c-4 -17 -3 -21 5 -13 5 5 8 16 6 23 -3 8 -7 3 -11 -10z"/>
<path d="M3852 2444 c-38 -26 -20 -94 26 -94 48 0 67 55 32 90 -24 24 -29 24
-58 4z"/>
<path d="M6402 2391 c2 -7 7 -12 11 -12 12 1 9 15 -3 20 -7 2 -11 -2 -8 -8z"/>
<path d="M3780 2384 c0 -6 7 -19 16 -30 14 -18 14 -18 3 6 -14 31 -19 36 -19
24z"/>
<path d="M3818 2314 c13 -25 42 -50 42 -37 0 5 -12 20 -26 34 -24 21 -26 22
-16 3z"/>
<path d="M3600 2296 c0 -2 8 -10 18 -17 15 -13 16 -12 3 4 -13 16 -21 21 -21
13z"/>
<path d="M5270 2168 c0 -40 35 -84 71 -92 18 -3 35 -4 38 0 3 3 -8 30 -24 60
-25 45 -34 54 -57 54 -22 0 -28 -5 -28 -22z"/>
<path d="M4010 2096 c0 -3 15 -15 33 -27 23 -17 28 -18 18 -6 -14 18 -51 42
-51 33z"/>
<path d="M3954 2069 c8 -11 25 -28 38 -36 15 -11 11 -4 -11 20 -39 41 -49 47
-27 16z"/>
<path d="M4126 2022 c-3 -5 17 -21 44 -34 59 -29 65 -23 12 12 -48 32 -49 33
-56 22z"/>
<path d="M4020 2016 c0 -2 8 -10 18 -17 15 -13 16 -12 3 4 -13 16 -21 21 -21
13z"/>
<path d="M4082 1964 c10 -10 20 -15 24 -12 3 4 -5 12 -18 18 -22 12 -22 12 -6
-6z"/>
</g>
</svg>
